<?xml version="1.0" encoding="UTF-8" standalone="no"?>
<!DOCTYPE svg PUBLIC "-//W3C//DTD SVG 1.1//EN" "http://www.w3.org/Graphics/SVG/1.1/DTD/svg11.dtd">
<svg width="100%" height="100%" viewBox="0 0 550 394" version="1.1" xmlns="http://www.w3.org/2000/svg" xmlns:xlink="http://www.w3.org/1999/xlink" xml:space="preserve" xmlns:serif="http://www.serif.com/" style="fill-rule:evenodd;clip-rule:evenodd;stroke-linejoin:round;stroke-miterlimit:2;">
    <g transform="matrix(1,0,0,1,-15,-91)">
        <path d="M24,382L123,482L218,435.046L218,350L116,257.051L25,300L24,382Z" style="fill:rgb(252,252,252);"/>
    </g>
    <g transform="matrix(1,0,0,1,-15,-91)">
        <path d="M123,400L123,482L218,435.046L218,350L123,400Z" style="fill:rgb(220,220,220);"/>
    </g>
    <g transform="matrix(1,0,0,1,-15,-91)">
        <path d="M25,300L123,401.046L218,350L116,257.051L25,300Z" style="fill:rgb(243,243,243);"/>
    </g>
    <g transform="matrix(1,0,0,1,-15,-91)">
        <path d="M219,351L219,438.552L558,267L559,183L453,98L114,257.995L219,351Z" style="fill:white;"/>
    </g>
    <g transform="matrix(1,0,0,1,-15,-91)">
        <path d="M219,351L559,183L453,98L114,257.995L219,351Z" style="fill:rgb(24,64,126);"/>
    </g>
</svg>
